<mxfile host="app.diagrams.net" modified="2024-04-27T03:49:25.860Z" agent="Mozilla/5.0 (Windows NT 10.0; Win64; x64; rv:125.0) Gecko/20100101 Firefox/125.0" etag="nssLjtausrI45nVGbK8x" version="24.3.1" type="google" pages="5">
  <diagram name="Diagrama de Clases" id="6lueDCWDdQJhkGwPNdJH">
    <mxGraphModel grid="1" page="1" gridSize="10" guides="1" tooltips="1" connect="1" arrows="1" fold="1" pageScale="1" pageWidth="827" pageHeight="1169" math="0" shadow="0">
      <root>
        <mxCell id="0" />
        <mxCell id="1" parent="0" />
        <UserObject label="NodoSimple&amp;lt;Comparable T&amp;gt;" id="QZ4N84vIqgbgP7jNBYL4-1">
          <mxCell style="swimlane;fontStyle=1;align=center;verticalAlign=top;childLayout=stackLayout;horizontal=1;startSize=26;horizontalStack=0;resizeParent=1;resizeParentMax=0;resizeLast=0;collapsible=1;marginBottom=0;whiteSpace=wrap;html=1;" vertex="1" parent="1">
            <mxGeometry x="50" y="221" width="216" height="99" as="geometry" />
          </mxCell>
        </UserObject>
        <mxCell id="QZ4N84vIqgbgP7jNBYL4-2" value="&lt;div&gt;- siguiente: NodoSimple&lt;/div&gt;&lt;div&gt;- dato: T&lt;/div&gt;" style="text;strokeColor=none;fillColor=none;align=left;verticalAlign=top;spacingLeft=4;spacingRight=4;overflow=hidden;rotatable=0;points=[[0,0.5],[1,0.5]];portConstraint=eastwest;whiteSpace=wrap;html=1;" vertex="1" parent="QZ4N84vIqgbgP7jNBYL4-1">
          <mxGeometry y="26" width="216" height="37" as="geometry" />
        </mxCell>
        <mxCell id="QZ4N84vIqgbgP7jNBYL4-3" value="" style="line;strokeWidth=1;fillColor=none;align=left;verticalAlign=middle;spacingTop=-1;spacingLeft=3;spacingRight=3;rotatable=0;labelPosition=right;points=[];portConstraint=eastwest;strokeColor=inherit;" vertex="1" parent="QZ4N84vIqgbgP7jNBYL4-1">
          <mxGeometry y="63" width="216" height="8" as="geometry" />
        </mxCell>
        <mxCell id="QZ4N84vIqgbgP7jNBYL4-4" value="&lt;div&gt;+ NodoSimple(T dato)&lt;/div&gt;" style="text;strokeColor=none;fillColor=none;align=left;verticalAlign=top;spacingLeft=4;spacingRight=4;overflow=hidden;rotatable=0;points=[[0,0.5],[1,0.5]];portConstraint=eastwest;whiteSpace=wrap;html=1;" vertex="1" parent="QZ4N84vIqgbgP7jNBYL4-1">
          <mxGeometry y="71" width="216" height="28" as="geometry" />
        </mxCell>
        <mxCell id="QZ4N84vIqgbgP7jNBYL4-5" value="&lt;div&gt;ListaSimple&lt;/div&gt;&lt;div&gt;&lt;br&gt;&lt;/div&gt;" style="swimlane;fontStyle=1;align=center;verticalAlign=top;childLayout=stackLayout;horizontal=1;startSize=26;horizontalStack=0;resizeParent=1;resizeParentMax=0;resizeLast=0;collapsible=1;marginBottom=0;whiteSpace=wrap;html=1;" vertex="1" parent="1">
          <mxGeometry x="50" y="437" width="333" height="171" as="geometry" />
        </mxCell>
        <mxCell id="QZ4N84vIqgbgP7jNBYL4-6" value="# inicio: NodoSimple" style="text;strokeColor=none;fillColor=none;align=left;verticalAlign=top;spacingLeft=4;spacingRight=4;overflow=hidden;rotatable=0;points=[[0,0.5],[1,0.5]];portConstraint=eastwest;whiteSpace=wrap;html=1;" vertex="1" parent="QZ4N84vIqgbgP7jNBYL4-5">
          <mxGeometry y="26" width="333" height="26" as="geometry" />
        </mxCell>
        <mxCell id="QZ4N84vIqgbgP7jNBYL4-7" value="" style="line;strokeWidth=1;fillColor=none;align=left;verticalAlign=middle;spacingTop=-1;spacingLeft=3;spacingRight=3;rotatable=0;labelPosition=right;points=[];portConstraint=eastwest;strokeColor=inherit;" vertex="1" parent="QZ4N84vIqgbgP7jNBYL4-5">
          <mxGeometry y="52" width="333" height="8" as="geometry" />
        </mxCell>
        <mxCell id="QZ4N84vIqgbgP7jNBYL4-8" value="&lt;div&gt;+ ListaSimple()&lt;/div&gt;&lt;div&gt;+ estaVacia(): boolean&lt;br&gt;&lt;/div&gt;&lt;div&gt;+ insertarFrente(Comparable e): void&lt;/div&gt;&lt;div&gt;+ mostrar(): void&lt;br&gt;&lt;/div&gt;&lt;div&gt;+ buscar(Comparable buscado): NodoSimple&lt;/div&gt;&lt;div&gt;+ eliminar(Comparable e): NodoSimple&lt;/div&gt;&lt;div&gt;+ quitar(NodoSimple ant, NodoSimple p): NodoSimple&lt;br&gt;&lt;/div&gt;" style="text;strokeColor=none;fillColor=none;align=left;verticalAlign=top;spacingLeft=4;spacingRight=4;overflow=hidden;rotatable=0;points=[[0,0.5],[1,0.5]];portConstraint=eastwest;whiteSpace=wrap;html=1;" vertex="1" parent="QZ4N84vIqgbgP7jNBYL4-5">
          <mxGeometry y="60" width="333" height="111" as="geometry" />
        </mxCell>
        <mxCell id="QZ4N84vIqgbgP7jNBYL4-9" value="" style="endArrow=open;html=1;endSize=12;startArrow=diamondThin;startSize=14;startFill=0;edgeStyle=orthogonalEdgeStyle;align=left;verticalAlign=bottom;rounded=0;entryX=0.501;entryY=1.02;entryDx=0;entryDy=0;entryPerimeter=0;" edge="1" parent="1" source="QZ4N84vIqgbgP7jNBYL4-5" target="QZ4N84vIqgbgP7jNBYL4-4">
          <mxGeometry x="-1" y="3" relative="1" as="geometry">
            <mxPoint x="161" y="383" as="sourcePoint" />
            <mxPoint x="140" y="473" as="targetPoint" />
          </mxGeometry>
        </mxCell>
        <mxCell id="QZ4N84vIqgbgP7jNBYL4-10" value="Use" style="endArrow=open;endSize=12;dashed=1;html=1;rounded=0;exitX=0.285;exitY=0.014;exitDx=0;exitDy=0;exitPerimeter=0;entryX=0.343;entryY=1.034;entryDx=0;entryDy=0;entryPerimeter=0;" edge="1" parent="1" source="QZ4N84vIqgbgP7jNBYL4-5" target="QZ4N84vIqgbgP7jNBYL4-4">
          <mxGeometry x="0.0158" y="4" width="160" relative="1" as="geometry">
            <mxPoint x="122" y="464" as="sourcePoint" />
            <mxPoint x="122" y="347" as="targetPoint" />
            <mxPoint as="offset" />
          </mxGeometry>
        </mxCell>
        <mxCell id="QZ4N84vIqgbgP7jNBYL4-11" value="&lt;p style=&quot;margin:0px;margin-top:4px;text-align:center;&quot;&gt;&lt;i&gt;&amp;lt;&amp;lt;Interface&amp;gt;&amp;gt;&lt;/i&gt;&lt;/p&gt;&lt;p style=&quot;margin:0px;margin-top:4px;text-align:center;&quot;&gt;&lt;b&gt;Comparable&amp;lt;T&amp;gt;&lt;/b&gt;&lt;br&gt;&lt;/p&gt;&lt;hr size=&quot;1&quot; style=&quot;border-style:solid;&quot;&gt;&lt;p style=&quot;margin:0px;margin-left:4px;&quot;&gt;&lt;br&gt;&lt;/p&gt;&lt;hr size=&quot;1&quot; style=&quot;border-style:solid;&quot;&gt;&lt;p style=&quot;margin:0px;margin-left:4px;&quot;&gt;+ compareTo(T obj): int&lt;br&gt;&lt;br&gt;&lt;/p&gt;" style="verticalAlign=top;align=left;overflow=fill;html=1;whiteSpace=wrap;" vertex="1" parent="1">
          <mxGeometry x="63" y="50" width="190" height="108" as="geometry" />
        </mxCell>
        <mxCell id="QZ4N84vIqgbgP7jNBYL4-12" value="Use" style="endArrow=open;endSize=12;dashed=1;html=1;rounded=0;exitX=0.5;exitY=0;exitDx=0;exitDy=0;entryX=0.5;entryY=1;entryDx=0;entryDy=0;" edge="1" parent="1" source="QZ4N84vIqgbgP7jNBYL4-1" target="QZ4N84vIqgbgP7jNBYL4-11">
          <mxGeometry width="160" relative="1" as="geometry">
            <mxPoint x="103" y="210" as="sourcePoint" />
            <mxPoint x="417" y="212" as="targetPoint" />
          </mxGeometry>
        </mxCell>
        <mxCell id="QZ4N84vIqgbgP7jNBYL4-13" value="" style="endArrow=open;html=1;endSize=12;startArrow=diamondThin;startSize=14;startFill=0;edgeStyle=orthogonalEdgeStyle;align=left;verticalAlign=bottom;rounded=0;entryX=1.001;entryY=0.148;entryDx=0;entryDy=0;entryPerimeter=0;" edge="1" parent="1" target="QZ4N84vIqgbgP7jNBYL4-1">
          <mxGeometry x="-1" y="3" relative="1" as="geometry">
            <mxPoint x="266" y="302" as="sourcePoint" />
            <mxPoint x="426" y="302" as="targetPoint" />
            <Array as="points">
              <mxPoint x="320" y="302" />
              <mxPoint x="320" y="236" />
            </Array>
          </mxGeometry>
        </mxCell>
        <mxCell id="QZ4N84vIqgbgP7jNBYL4-14" value="ListaSimpleOrdenada" style="swimlane;fontStyle=1;align=center;verticalAlign=top;childLayout=stackLayout;horizontal=1;startSize=26;horizontalStack=0;resizeParent=1;resizeParentMax=0;resizeLast=0;collapsible=1;marginBottom=0;whiteSpace=wrap;html=1;" vertex="1" parent="1">
          <mxGeometry x="80" y="680" width="450" height="140" as="geometry" />
        </mxCell>
        <mxCell id="QZ4N84vIqgbgP7jNBYL4-16" value="" style="line;strokeWidth=1;fillColor=none;align=left;verticalAlign=middle;spacingTop=-1;spacingLeft=3;spacingRight=3;rotatable=0;labelPosition=right;points=[];portConstraint=eastwest;strokeColor=inherit;" vertex="1" parent="QZ4N84vIqgbgP7jNBYL4-14">
          <mxGeometry y="26" width="450" height="8" as="geometry" />
        </mxCell>
        <mxCell id="QZ4N84vIqgbgP7jNBYL4-17" value="&lt;div&gt;+ ListaSimpleOrdenada()&lt;/div&gt;&lt;div&gt;+ insertar(Comparable dato): void&lt;/div&gt;&lt;div&gt;+ insertarMedio(NodoSimple p, NodoSimple ant, Comparable dato): void&lt;br&gt;&lt;/div&gt;&lt;div&gt;+ insertarUltimo(NodoSimple ant, Comparable dato): void&lt;/div&gt;&lt;div&gt;+ buscar(Comparable dato): NodoSimple&lt;/div&gt;&lt;div&gt;+ eliminar(Comparable dato): NodoSimple&lt;/div&gt;" style="text;strokeColor=none;fillColor=none;align=left;verticalAlign=top;spacingLeft=4;spacingRight=4;overflow=hidden;rotatable=0;points=[[0,0.5],[1,0.5]];portConstraint=eastwest;whiteSpace=wrap;html=1;" vertex="1" parent="QZ4N84vIqgbgP7jNBYL4-14">
          <mxGeometry y="34" width="450" height="106" as="geometry" />
        </mxCell>
        <mxCell id="QZ4N84vIqgbgP7jNBYL4-19" value="Extends" style="endArrow=block;endSize=16;endFill=0;html=1;rounded=0;entryX=0.571;entryY=1.009;entryDx=0;entryDy=0;exitX=0.5;exitY=0;exitDx=0;exitDy=0;entryPerimeter=0;" edge="1" parent="1" source="QZ4N84vIqgbgP7jNBYL4-14" target="QZ4N84vIqgbgP7jNBYL4-8">
          <mxGeometry width="160" relative="1" as="geometry">
            <mxPoint x="440" y="730" as="sourcePoint" />
            <mxPoint x="600" y="730" as="targetPoint" />
          </mxGeometry>
        </mxCell>
      </root>
    </mxGraphModel>
  </diagram>
  <diagram id="dT7fcpkLwNXChlrolhkA" name="DF01">
    <mxGraphModel grid="1" page="1" gridSize="10" guides="1" tooltips="1" connect="1" arrows="1" fold="1" pageScale="1" pageWidth="827" pageHeight="1169" math="0" shadow="0">
      <root>
        <mxCell id="0" />
        <mxCell id="1" parent="0" />
        <mxCell id="MQyrUjbiyGZuy1Cyhwmg-1" value="" style="edgeStyle=orthogonalEdgeStyle;rounded=0;orthogonalLoop=1;jettySize=auto;html=1;" edge="1" parent="1" source="MQyrUjbiyGZuy1Cyhwmg-2" target="MQyrUjbiyGZuy1Cyhwmg-7">
          <mxGeometry relative="1" as="geometry">
            <mxPoint x="110" y="150" as="targetPoint" />
          </mxGeometry>
        </mxCell>
        <mxCell id="MQyrUjbiyGZuy1Cyhwmg-2" value="" style="ellipse;whiteSpace=wrap;html=1;" vertex="1" parent="1">
          <mxGeometry x="70" y="70" width="80" height="40" as="geometry" />
        </mxCell>
        <mxCell id="MQyrUjbiyGZuy1Cyhwmg-3" value="+ListeSimpleOrdenada()" style="text;html=1;align=center;verticalAlign=middle;whiteSpace=wrap;rounded=0;" vertex="1" parent="1">
          <mxGeometry x="30" y="40" width="160" height="30" as="geometry" />
        </mxCell>
        <mxCell id="MQyrUjbiyGZuy1Cyhwmg-4" style="edgeStyle=orthogonalEdgeStyle;rounded=0;orthogonalLoop=1;jettySize=auto;html=1;entryX=0.5;entryY=0;entryDx=0;entryDy=0;exitX=0.5;exitY=1;exitDx=0;exitDy=0;" edge="1" parent="1" source="MQyrUjbiyGZuy1Cyhwmg-7" target="MQyrUjbiyGZuy1Cyhwmg-6">
          <mxGeometry relative="1" as="geometry">
            <mxPoint x="110" y="190" as="sourcePoint" />
          </mxGeometry>
        </mxCell>
        <mxCell id="MQyrUjbiyGZuy1Cyhwmg-6" value="" style="ellipse;whiteSpace=wrap;html=1;" vertex="1" parent="1">
          <mxGeometry x="70" y="190" width="80" height="40" as="geometry" />
        </mxCell>
        <mxCell id="MQyrUjbiyGZuy1Cyhwmg-7" value="super()" style="shape=process;whiteSpace=wrap;html=1;backgroundOutline=1;" vertex="1" parent="1">
          <mxGeometry x="50" y="130" width="120" height="40" as="geometry" />
        </mxCell>
        <mxCell id="DNIaoxrFqzE5ydLH_VRT-1" value="+ insertar(Comparable dato): void" style="text;whiteSpace=wrap;html=1;" vertex="1" parent="1">
          <mxGeometry x="300" y="40" width="200" height="30" as="geometry" />
        </mxCell>
        <mxCell id="DNIaoxrFqzE5ydLH_VRT-4" value="" style="edgeStyle=orthogonalEdgeStyle;rounded=0;orthogonalLoop=1;jettySize=auto;html=1;" edge="1" parent="1" source="DNIaoxrFqzE5ydLH_VRT-2" target="DNIaoxrFqzE5ydLH_VRT-3">
          <mxGeometry relative="1" as="geometry" />
        </mxCell>
        <mxCell id="DNIaoxrFqzE5ydLH_VRT-2" value="" style="ellipse;whiteSpace=wrap;html=1;" vertex="1" parent="1">
          <mxGeometry x="360" y="80" width="80" height="40" as="geometry" />
        </mxCell>
        <mxCell id="DNIaoxrFqzE5ydLH_VRT-6" value="" style="edgeStyle=orthogonalEdgeStyle;rounded=0;orthogonalLoop=1;jettySize=auto;html=1;" edge="1" parent="1" source="DNIaoxrFqzE5ydLH_VRT-3" target="DNIaoxrFqzE5ydLH_VRT-5">
          <mxGeometry relative="1" as="geometry" />
        </mxCell>
        <mxCell id="DNIaoxrFqzE5ydLH_VRT-3" value="p = inicio" style="whiteSpace=wrap;html=1;" vertex="1" parent="1">
          <mxGeometry x="340" y="140" width="120" height="30" as="geometry" />
        </mxCell>
        <mxCell id="DNIaoxrFqzE5ydLH_VRT-8" value="" style="edgeStyle=orthogonalEdgeStyle;rounded=0;orthogonalLoop=1;jettySize=auto;html=1;" edge="1" parent="1" source="DNIaoxrFqzE5ydLH_VRT-5" target="DNIaoxrFqzE5ydLH_VRT-7">
          <mxGeometry relative="1" as="geometry" />
        </mxCell>
        <mxCell id="DNIaoxrFqzE5ydLH_VRT-5" value="ant = null" style="whiteSpace=wrap;html=1;" vertex="1" parent="1">
          <mxGeometry x="340" y="190" width="120" height="30" as="geometry" />
        </mxCell>
        <mxCell id="DNIaoxrFqzE5ydLH_VRT-10" value="" style="edgeStyle=orthogonalEdgeStyle;rounded=0;orthogonalLoop=1;jettySize=auto;html=1;" edge="1" parent="1" source="DNIaoxrFqzE5ydLH_VRT-7" target="DNIaoxrFqzE5ydLH_VRT-9">
          <mxGeometry relative="1" as="geometry" />
        </mxCell>
        <mxCell id="DNIaoxrFqzE5ydLH_VRT-7" value="busqueda = false" style="whiteSpace=wrap;html=1;" vertex="1" parent="1">
          <mxGeometry x="340" y="240" width="120" height="30" as="geometry" />
        </mxCell>
        <mxCell id="DNIaoxrFqzE5ydLH_VRT-11" style="edgeStyle=orthogonalEdgeStyle;rounded=0;orthogonalLoop=1;jettySize=auto;html=1;exitX=1;exitY=0.5;exitDx=0;exitDy=0;entryX=0.5;entryY=0;entryDx=0;entryDy=0;" edge="1" parent="1" source="DNIaoxrFqzE5ydLH_VRT-9" target="DNIaoxrFqzE5ydLH_VRT-15">
          <mxGeometry relative="1" as="geometry">
            <mxPoint x="634" y="410" as="targetPoint" />
            <mxPoint x="513.9999999999995" y="360.0000000000001" as="sourcePoint" />
          </mxGeometry>
        </mxCell>
        <mxCell id="DNIaoxrFqzE5ydLH_VRT-32" style="edgeStyle=orthogonalEdgeStyle;rounded=0;orthogonalLoop=1;jettySize=auto;html=1;exitX=0.5;exitY=1;exitDx=0;exitDy=0;" edge="1" parent="1" source="DNIaoxrFqzE5ydLH_VRT-9" target="DNIaoxrFqzE5ydLH_VRT-33">
          <mxGeometry relative="1" as="geometry">
            <mxPoint x="160" y="600" as="targetPoint" />
          </mxGeometry>
        </mxCell>
        <mxCell id="DNIaoxrFqzE5ydLH_VRT-9" value="&lt;div&gt;p != null&lt;/div&gt;&lt;div&gt;AND&lt;/div&gt;&lt;div&gt;!busuqeda&lt;br&gt;&lt;/div&gt;" style="rhombus;whiteSpace=wrap;html=1;" vertex="1" parent="1">
          <mxGeometry x="320" y="320" width="160" height="80" as="geometry" />
        </mxCell>
        <mxCell id="DNIaoxrFqzE5ydLH_VRT-17" value="" style="edgeStyle=orthogonalEdgeStyle;rounded=0;orthogonalLoop=1;jettySize=auto;html=1;" edge="1" parent="1" source="DNIaoxrFqzE5ydLH_VRT-15" target="DNIaoxrFqzE5ydLH_VRT-16">
          <mxGeometry relative="1" as="geometry" />
        </mxCell>
        <mxCell id="DNIaoxrFqzE5ydLH_VRT-15" value="comparacion = &lt;br&gt;&lt;div&gt;dato.compareTo(p.dato)&lt;/div&gt;" style="rounded=0;whiteSpace=wrap;html=1;" vertex="1" parent="1">
          <mxGeometry x="557" y="420" width="154" height="50" as="geometry" />
        </mxCell>
        <mxCell id="DNIaoxrFqzE5ydLH_VRT-18" style="edgeStyle=orthogonalEdgeStyle;rounded=0;orthogonalLoop=1;jettySize=auto;html=1;exitX=1;exitY=0.5;exitDx=0;exitDy=0;" edge="1" parent="1" source="DNIaoxrFqzE5ydLH_VRT-16" target="DNIaoxrFqzE5ydLH_VRT-19">
          <mxGeometry relative="1" as="geometry">
            <mxPoint x="754" y="610" as="targetPoint" />
          </mxGeometry>
        </mxCell>
        <mxCell id="DNIaoxrFqzE5ydLH_VRT-20" style="edgeStyle=orthogonalEdgeStyle;rounded=0;orthogonalLoop=1;jettySize=auto;html=1;" edge="1" parent="1" source="DNIaoxrFqzE5ydLH_VRT-16" target="DNIaoxrFqzE5ydLH_VRT-21">
          <mxGeometry relative="1" as="geometry">
            <mxPoint x="474.0000000000001" y="610" as="targetPoint" />
          </mxGeometry>
        </mxCell>
        <mxCell id="DNIaoxrFqzE5ydLH_VRT-16" value="comparacion &amp;lt; 0" style="rhombus;whiteSpace=wrap;html=1;rounded=0;" vertex="1" parent="1">
          <mxGeometry x="574" y="520" width="120" height="80" as="geometry" />
        </mxCell>
        <mxCell id="DNIaoxrFqzE5ydLH_VRT-26" style="edgeStyle=orthogonalEdgeStyle;rounded=0;orthogonalLoop=1;jettySize=auto;html=1;entryX=1;entryY=0.5;entryDx=0;entryDy=0;exitX=0.5;exitY=1;exitDx=0;exitDy=0;" edge="1" parent="1" source="DNIaoxrFqzE5ydLH_VRT-19" target="DNIaoxrFqzE5ydLH_VRT-24">
          <mxGeometry relative="1" as="geometry">
            <mxPoint x="749" y="640" as="sourcePoint" />
          </mxGeometry>
        </mxCell>
        <mxCell id="DNIaoxrFqzE5ydLH_VRT-19" value="busqueda = true" style="rounded=0;whiteSpace=wrap;html=1;" vertex="1" parent="1">
          <mxGeometry x="694" y="620" width="86" height="30" as="geometry" />
        </mxCell>
        <mxCell id="DNIaoxrFqzE5ydLH_VRT-23" value="" style="edgeStyle=orthogonalEdgeStyle;rounded=0;orthogonalLoop=1;jettySize=auto;html=1;" edge="1" parent="1" source="DNIaoxrFqzE5ydLH_VRT-21" target="DNIaoxrFqzE5ydLH_VRT-22">
          <mxGeometry relative="1" as="geometry" />
        </mxCell>
        <mxCell id="DNIaoxrFqzE5ydLH_VRT-21" value="ant = p" style="rounded=0;whiteSpace=wrap;html=1;" vertex="1" parent="1">
          <mxGeometry x="480" y="610" width="66" height="30" as="geometry" />
        </mxCell>
        <mxCell id="DNIaoxrFqzE5ydLH_VRT-25" value="" style="edgeStyle=orthogonalEdgeStyle;rounded=0;orthogonalLoop=1;jettySize=auto;html=1;exitX=0.5;exitY=1;exitDx=0;exitDy=0;entryX=0;entryY=0.5;entryDx=0;entryDy=0;" edge="1" parent="1" source="DNIaoxrFqzE5ydLH_VRT-22" target="DNIaoxrFqzE5ydLH_VRT-24">
          <mxGeometry relative="1" as="geometry">
            <mxPoint x="479.0000000000001" y="680" as="sourcePoint" />
          </mxGeometry>
        </mxCell>
        <mxCell id="DNIaoxrFqzE5ydLH_VRT-22" value="p = p.siguiente" style="rounded=0;whiteSpace=wrap;html=1;" vertex="1" parent="1">
          <mxGeometry x="460" y="660" width="106" height="30" as="geometry" />
        </mxCell>
        <mxCell id="DNIaoxrFqzE5ydLH_VRT-27" style="edgeStyle=orthogonalEdgeStyle;rounded=0;orthogonalLoop=1;jettySize=auto;html=1;exitX=0.5;exitY=1;exitDx=0;exitDy=0;entryX=0;entryY=0.5;entryDx=0;entryDy=0;" edge="1" parent="1" source="DNIaoxrFqzE5ydLH_VRT-24" target="DNIaoxrFqzE5ydLH_VRT-28">
          <mxGeometry relative="1" as="geometry">
            <mxPoint x="614" y="800" as="targetPoint" />
          </mxGeometry>
        </mxCell>
        <mxCell id="DNIaoxrFqzE5ydLH_VRT-24" value="" style="ellipse;whiteSpace=wrap;html=1;rounded=0;" vertex="1" parent="1">
          <mxGeometry x="599" y="710" width="30" height="30" as="geometry" />
        </mxCell>
        <mxCell id="DNIaoxrFqzE5ydLH_VRT-28" value="1" style="ellipse;whiteSpace=wrap;html=1;aspect=fixed;" vertex="1" parent="1">
          <mxGeometry x="774" y="760" width="40" height="40" as="geometry" />
        </mxCell>
        <mxCell id="DNIaoxrFqzE5ydLH_VRT-30" style="edgeStyle=orthogonalEdgeStyle;rounded=0;orthogonalLoop=1;jettySize=auto;html=1;" edge="1" parent="1" source="DNIaoxrFqzE5ydLH_VRT-29">
          <mxGeometry relative="1" as="geometry">
            <mxPoint x="400.0000000000001" y="300" as="targetPoint" />
          </mxGeometry>
        </mxCell>
        <mxCell id="DNIaoxrFqzE5ydLH_VRT-29" value="1" style="ellipse;whiteSpace=wrap;html=1;aspect=fixed;" vertex="1" parent="1">
          <mxGeometry x="740" y="280" width="40" height="40" as="geometry" />
        </mxCell>
        <mxCell id="DNIaoxrFqzE5ydLH_VRT-31" value="T" style="text;html=1;align=center;verticalAlign=middle;whiteSpace=wrap;rounded=0;" vertex="1" parent="1">
          <mxGeometry x="480" y="330" width="20" height="30" as="geometry" />
        </mxCell>
        <mxCell id="DNIaoxrFqzE5ydLH_VRT-34" style="edgeStyle=orthogonalEdgeStyle;rounded=0;orthogonalLoop=1;jettySize=auto;html=1;exitX=1;exitY=0.5;exitDx=0;exitDy=0;" edge="1" parent="1" source="DNIaoxrFqzE5ydLH_VRT-33" target="DNIaoxrFqzE5ydLH_VRT-35">
          <mxGeometry relative="1" as="geometry">
            <mxPoint x="280" y="660" as="targetPoint" />
          </mxGeometry>
        </mxCell>
        <mxCell id="DNIaoxrFqzE5ydLH_VRT-36" style="edgeStyle=orthogonalEdgeStyle;rounded=0;orthogonalLoop=1;jettySize=auto;html=1;exitX=0;exitY=0.5;exitDx=0;exitDy=0;" edge="1" parent="1" source="DNIaoxrFqzE5ydLH_VRT-33" target="DNIaoxrFqzE5ydLH_VRT-37">
          <mxGeometry relative="1" as="geometry">
            <mxPoint x="70" y="740" as="targetPoint" />
          </mxGeometry>
        </mxCell>
        <mxCell id="DNIaoxrFqzE5ydLH_VRT-33" value="p == inicio" style="rhombus;whiteSpace=wrap;html=1;" vertex="1" parent="1">
          <mxGeometry x="230" y="480" width="80" height="60" as="geometry" />
        </mxCell>
        <mxCell id="DNIaoxrFqzE5ydLH_VRT-47" style="edgeStyle=orthogonalEdgeStyle;rounded=0;orthogonalLoop=1;jettySize=auto;html=1;entryX=1;entryY=0.5;entryDx=0;entryDy=0;exitX=0.5;exitY=1;exitDx=0;exitDy=0;" edge="1" parent="1" source="DNIaoxrFqzE5ydLH_VRT-35" target="DNIaoxrFqzE5ydLH_VRT-46">
          <mxGeometry relative="1" as="geometry" />
        </mxCell>
        <mxCell id="DNIaoxrFqzE5ydLH_VRT-35" value="insertarFrente(dato)" style="shape=process;whiteSpace=wrap;html=1;backgroundOutline=1;" vertex="1" parent="1">
          <mxGeometry x="310" y="542.5" width="150" height="35" as="geometry" />
        </mxCell>
        <mxCell id="DNIaoxrFqzE5ydLH_VRT-38" style="edgeStyle=orthogonalEdgeStyle;rounded=0;orthogonalLoop=1;jettySize=auto;html=1;exitX=1;exitY=0.5;exitDx=0;exitDy=0;" edge="1" parent="1" source="DNIaoxrFqzE5ydLH_VRT-37" target="DNIaoxrFqzE5ydLH_VRT-39">
          <mxGeometry relative="1" as="geometry">
            <mxPoint x="200" y="800" as="targetPoint" />
          </mxGeometry>
        </mxCell>
        <mxCell id="DNIaoxrFqzE5ydLH_VRT-40" style="edgeStyle=orthogonalEdgeStyle;rounded=0;orthogonalLoop=1;jettySize=auto;html=1;exitX=0;exitY=0.5;exitDx=0;exitDy=0;" edge="1" parent="1" source="DNIaoxrFqzE5ydLH_VRT-37" target="DNIaoxrFqzE5ydLH_VRT-41">
          <mxGeometry relative="1" as="geometry">
            <mxPoint x="-60" y="810" as="targetPoint" />
          </mxGeometry>
        </mxCell>
        <mxCell id="DNIaoxrFqzE5ydLH_VRT-37" value="busqueda" style="rhombus;whiteSpace=wrap;html=1;" vertex="1" parent="1">
          <mxGeometry x="150" y="540" width="80" height="57.5" as="geometry" />
        </mxCell>
        <mxCell id="DNIaoxrFqzE5ydLH_VRT-44" style="edgeStyle=orthogonalEdgeStyle;rounded=0;orthogonalLoop=1;jettySize=auto;html=1;entryX=1;entryY=0.5;entryDx=0;entryDy=0;exitX=0.5;exitY=1;exitDx=0;exitDy=0;" edge="1" parent="1" source="DNIaoxrFqzE5ydLH_VRT-39" target="DNIaoxrFqzE5ydLH_VRT-43">
          <mxGeometry relative="1" as="geometry" />
        </mxCell>
        <mxCell id="DNIaoxrFqzE5ydLH_VRT-39" value="insertarMedio(p, ant, dato)" style="shape=process;whiteSpace=wrap;html=1;backgroundOutline=1;" vertex="1" parent="1">
          <mxGeometry x="210" y="605" width="160" height="40" as="geometry" />
        </mxCell>
        <mxCell id="DNIaoxrFqzE5ydLH_VRT-42" style="edgeStyle=orthogonalEdgeStyle;rounded=0;orthogonalLoop=1;jettySize=auto;html=1;entryX=0;entryY=0.5;entryDx=0;entryDy=0;exitX=0.5;exitY=1;exitDx=0;exitDy=0;" edge="1" parent="1" source="DNIaoxrFqzE5ydLH_VRT-41" target="DNIaoxrFqzE5ydLH_VRT-43">
          <mxGeometry relative="1" as="geometry">
            <mxPoint x="50" y="940" as="targetPoint" />
          </mxGeometry>
        </mxCell>
        <mxCell id="DNIaoxrFqzE5ydLH_VRT-41" value="insertarUltimo(ant, dato)" style="shape=process;whiteSpace=wrap;html=1;backgroundOutline=1;" vertex="1" parent="1">
          <mxGeometry x="10" y="610" width="150" height="40" as="geometry" />
        </mxCell>
        <mxCell id="DNIaoxrFqzE5ydLH_VRT-45" style="edgeStyle=orthogonalEdgeStyle;rounded=0;orthogonalLoop=1;jettySize=auto;html=1;exitX=0.5;exitY=1;exitDx=0;exitDy=0;entryX=0;entryY=0.5;entryDx=0;entryDy=0;" edge="1" parent="1" source="DNIaoxrFqzE5ydLH_VRT-43" target="DNIaoxrFqzE5ydLH_VRT-46">
          <mxGeometry relative="1" as="geometry">
            <mxPoint x="200" y="950" as="targetPoint" />
          </mxGeometry>
        </mxCell>
        <mxCell id="DNIaoxrFqzE5ydLH_VRT-43" value="" style="ellipse;whiteSpace=wrap;html=1;aspect=fixed;" vertex="1" parent="1">
          <mxGeometry x="170" y="660" width="40" height="40" as="geometry" />
        </mxCell>
        <mxCell id="DNIaoxrFqzE5ydLH_VRT-48" style="edgeStyle=orthogonalEdgeStyle;rounded=0;orthogonalLoop=1;jettySize=auto;html=1;" edge="1" parent="1" source="DNIaoxrFqzE5ydLH_VRT-46" target="DNIaoxrFqzE5ydLH_VRT-49">
          <mxGeometry relative="1" as="geometry">
            <mxPoint x="210" y="1060" as="targetPoint" />
          </mxGeometry>
        </mxCell>
        <mxCell id="DNIaoxrFqzE5ydLH_VRT-46" value="" style="ellipse;whiteSpace=wrap;html=1;aspect=fixed;" vertex="1" parent="1">
          <mxGeometry x="250" y="700" width="40" height="40" as="geometry" />
        </mxCell>
        <mxCell id="DNIaoxrFqzE5ydLH_VRT-49" value="" style="ellipse;whiteSpace=wrap;html=1;" vertex="1" parent="1">
          <mxGeometry x="230" y="770" width="80" height="40" as="geometry" />
        </mxCell>
        <mxCell id="DNIaoxrFqzE5ydLH_VRT-50" value="T" style="text;html=1;align=center;verticalAlign=middle;whiteSpace=wrap;rounded=0;" vertex="1" parent="1">
          <mxGeometry x="310" y="480" width="20" height="30" as="geometry" />
        </mxCell>
        <mxCell id="DNIaoxrFqzE5ydLH_VRT-52" value="T" style="text;html=1;align=center;verticalAlign=middle;whiteSpace=wrap;rounded=0;" vertex="1" parent="1">
          <mxGeometry x="230" y="540" width="20" height="30" as="geometry" />
        </mxCell>
        <mxCell id="DNIaoxrFqzE5ydLH_VRT-53" value="F" style="text;html=1;align=center;verticalAlign=middle;whiteSpace=wrap;rounded=0;" vertex="1" parent="1">
          <mxGeometry x="210" y="480" width="20" height="30" as="geometry" />
        </mxCell>
        <mxCell id="DNIaoxrFqzE5ydLH_VRT-54" value="F" style="text;html=1;align=center;verticalAlign=middle;whiteSpace=wrap;rounded=0;" vertex="1" parent="1">
          <mxGeometry x="375" y="400" width="20" height="30" as="geometry" />
        </mxCell>
        <mxCell id="DNIaoxrFqzE5ydLH_VRT-56" value="F" style="text;html=1;align=center;verticalAlign=middle;whiteSpace=wrap;rounded=0;" vertex="1" parent="1">
          <mxGeometry x="130" y="540" width="20" height="30" as="geometry" />
        </mxCell>
        <mxCell id="DNIaoxrFqzE5ydLH_VRT-57" value="T" style="text;html=1;align=center;verticalAlign=middle;whiteSpace=wrap;rounded=0;" vertex="1" parent="1">
          <mxGeometry x="694" y="530" width="20" height="30" as="geometry" />
        </mxCell>
        <mxCell id="DNIaoxrFqzE5ydLH_VRT-59" value="F" style="text;html=1;align=center;verticalAlign=middle;whiteSpace=wrap;rounded=0;" vertex="1" parent="1">
          <mxGeometry x="554" y="530" width="20" height="30" as="geometry" />
        </mxCell>
      </root>
    </mxGraphModel>
  </diagram>
  <diagram id="P19UrdIGUxe21V6Q8UQB" name="DF02">
    <mxGraphModel grid="1" page="1" gridSize="10" guides="1" tooltips="1" connect="1" arrows="1" fold="1" pageScale="1" pageWidth="827" pageHeight="1169" math="0" shadow="0">
      <root>
        <mxCell id="0" />
        <mxCell id="1" parent="0" />
        <mxCell id="Ufwi0eiT15-DvnmVxyAs-4" value="" style="edgeStyle=orthogonalEdgeStyle;rounded=0;orthogonalLoop=1;jettySize=auto;html=1;" edge="1" parent="1" source="Ufwi0eiT15-DvnmVxyAs-1" target="Ufwi0eiT15-DvnmVxyAs-3">
          <mxGeometry relative="1" as="geometry" />
        </mxCell>
        <mxCell id="Ufwi0eiT15-DvnmVxyAs-1" value="" style="ellipse;whiteSpace=wrap;html=1;" vertex="1" parent="1">
          <mxGeometry x="95" y="100" width="80" height="40" as="geometry" />
        </mxCell>
        <mxCell id="Ufwi0eiT15-DvnmVxyAs-2" value="&lt;div&gt;+ insertarMedio(NodoSimple p, NodoSimple ant,&amp;nbsp;&lt;/div&gt;&lt;div&gt;Comparable dato): void&lt;/div&gt;" style="text;whiteSpace=wrap;html=1;" vertex="1" parent="1">
          <mxGeometry x="40" y="40" width="190" height="50" as="geometry" />
        </mxCell>
        <mxCell id="iFj_DQ5-fb_sjY0oYfCL-2" value="" style="edgeStyle=orthogonalEdgeStyle;rounded=0;orthogonalLoop=1;jettySize=auto;html=1;" edge="1" parent="1" source="Ufwi0eiT15-DvnmVxyAs-3" target="iFj_DQ5-fb_sjY0oYfCL-1">
          <mxGeometry relative="1" as="geometry" />
        </mxCell>
        <mxCell id="Ufwi0eiT15-DvnmVxyAs-3" value="n = NodoSimple(dato)" style="shape=process;whiteSpace=wrap;html=1;backgroundOutline=1;" vertex="1" parent="1">
          <mxGeometry x="40" y="160" width="190" height="40" as="geometry" />
        </mxCell>
        <mxCell id="iFj_DQ5-fb_sjY0oYfCL-4" value="" style="edgeStyle=orthogonalEdgeStyle;rounded=0;orthogonalLoop=1;jettySize=auto;html=1;" edge="1" parent="1" source="iFj_DQ5-fb_sjY0oYfCL-1" target="iFj_DQ5-fb_sjY0oYfCL-3">
          <mxGeometry relative="1" as="geometry" />
        </mxCell>
        <mxCell id="iFj_DQ5-fb_sjY0oYfCL-1" value="n.siguiente = p" style="whiteSpace=wrap;html=1;" vertex="1" parent="1">
          <mxGeometry x="75" y="220" width="120" height="40" as="geometry" />
        </mxCell>
        <mxCell id="iFj_DQ5-fb_sjY0oYfCL-6" value="" style="edgeStyle=orthogonalEdgeStyle;rounded=0;orthogonalLoop=1;jettySize=auto;html=1;" edge="1" parent="1" source="iFj_DQ5-fb_sjY0oYfCL-3" target="iFj_DQ5-fb_sjY0oYfCL-5">
          <mxGeometry relative="1" as="geometry" />
        </mxCell>
        <mxCell id="iFj_DQ5-fb_sjY0oYfCL-3" value="ant.siguiente = n" style="whiteSpace=wrap;html=1;" vertex="1" parent="1">
          <mxGeometry x="75" y="280" width="120" height="40" as="geometry" />
        </mxCell>
        <mxCell id="iFj_DQ5-fb_sjY0oYfCL-5" value="" style="ellipse;whiteSpace=wrap;html=1;" vertex="1" parent="1">
          <mxGeometry x="95" y="340" width="80" height="40" as="geometry" />
        </mxCell>
        <mxCell id="_TM87G91iNyyhtyx5Qxk-1" value="&lt;div&gt;+ insertarUltimo(NodoSimple ant,&amp;nbsp;&lt;/div&gt;&lt;div&gt;Comparable dato): void&lt;/div&gt;" style="text;whiteSpace=wrap;html=1;" vertex="1" parent="1">
          <mxGeometry x="280" y="50" width="210" height="40" as="geometry" />
        </mxCell>
        <mxCell id="_TM87G91iNyyhtyx5Qxk-2" value="" style="edgeStyle=orthogonalEdgeStyle;rounded=0;orthogonalLoop=1;jettySize=auto;html=1;" edge="1" parent="1" source="_TM87G91iNyyhtyx5Qxk-3" target="_TM87G91iNyyhtyx5Qxk-5">
          <mxGeometry relative="1" as="geometry" />
        </mxCell>
        <mxCell id="_TM87G91iNyyhtyx5Qxk-3" value="" style="ellipse;whiteSpace=wrap;html=1;" vertex="1" parent="1">
          <mxGeometry x="325" y="100" width="80" height="40" as="geometry" />
        </mxCell>
        <mxCell id="_TM87G91iNyyhtyx5Qxk-11" style="edgeStyle=orthogonalEdgeStyle;rounded=0;orthogonalLoop=1;jettySize=auto;html=1;entryX=0.5;entryY=0;entryDx=0;entryDy=0;" edge="1" parent="1" source="_TM87G91iNyyhtyx5Qxk-5" target="_TM87G91iNyyhtyx5Qxk-9">
          <mxGeometry relative="1" as="geometry" />
        </mxCell>
        <mxCell id="_TM87G91iNyyhtyx5Qxk-5" value="n = NodoSimple(dato)" style="shape=process;whiteSpace=wrap;html=1;backgroundOutline=1;" vertex="1" parent="1">
          <mxGeometry x="270" y="160" width="190" height="40" as="geometry" />
        </mxCell>
        <mxCell id="_TM87G91iNyyhtyx5Qxk-8" value="" style="edgeStyle=orthogonalEdgeStyle;rounded=0;orthogonalLoop=1;jettySize=auto;html=1;" edge="1" parent="1" source="_TM87G91iNyyhtyx5Qxk-9" target="_TM87G91iNyyhtyx5Qxk-10">
          <mxGeometry relative="1" as="geometry" />
        </mxCell>
        <mxCell id="_TM87G91iNyyhtyx5Qxk-9" value="ant.siguiente = n" style="whiteSpace=wrap;html=1;" vertex="1" parent="1">
          <mxGeometry x="305" y="220" width="120" height="40" as="geometry" />
        </mxCell>
        <mxCell id="_TM87G91iNyyhtyx5Qxk-10" value="" style="ellipse;whiteSpace=wrap;html=1;" vertex="1" parent="1">
          <mxGeometry x="325" y="280" width="80" height="40" as="geometry" />
        </mxCell>
      </root>
    </mxGraphModel>
  </diagram>
  <diagram id="ADe1xjJ--b1kKLbVmiMx" name="DF03">
    <mxGraphModel grid="1" page="1" gridSize="10" guides="1" tooltips="1" connect="1" arrows="1" fold="1" pageScale="1" pageWidth="827" pageHeight="1169" math="0" shadow="0">
      <root>
        <mxCell id="0" />
        <mxCell id="1" parent="0" />
        <mxCell id="cmGgds7QlrzbW8-zQxUZ-1" value="+ buscar(Comparable dato): NodoSimple" style="text;whiteSpace=wrap;html=1;" vertex="1" parent="1">
          <mxGeometry x="10" y="-1140" width="260" height="30" as="geometry" />
        </mxCell>
        <mxCell id="cmGgds7QlrzbW8-zQxUZ-2" value="" style="edgeStyle=orthogonalEdgeStyle;rounded=0;orthogonalLoop=1;jettySize=auto;html=1;" edge="1" parent="1" source="cmGgds7QlrzbW8-zQxUZ-3" target="cmGgds7QlrzbW8-zQxUZ-5">
          <mxGeometry relative="1" as="geometry" />
        </mxCell>
        <mxCell id="cmGgds7QlrzbW8-zQxUZ-3" value="" style="ellipse;whiteSpace=wrap;html=1;" vertex="1" parent="1">
          <mxGeometry x="95" y="-1110" width="80" height="40" as="geometry" />
        </mxCell>
        <mxCell id="cmGgds7QlrzbW8-zQxUZ-4" value="" style="edgeStyle=orthogonalEdgeStyle;rounded=0;orthogonalLoop=1;jettySize=auto;html=1;" edge="1" parent="1" source="cmGgds7QlrzbW8-zQxUZ-5" target="cmGgds7QlrzbW8-zQxUZ-8">
          <mxGeometry relative="1" as="geometry" />
        </mxCell>
        <mxCell id="cmGgds7QlrzbW8-zQxUZ-5" value="n = null" style="whiteSpace=wrap;html=1;" vertex="1" parent="1">
          <mxGeometry x="90" y="-1050" width="90" height="35" as="geometry" />
        </mxCell>
        <mxCell id="cmGgds7QlrzbW8-zQxUZ-6" style="edgeStyle=orthogonalEdgeStyle;rounded=0;orthogonalLoop=1;jettySize=auto;html=1;exitX=0;exitY=0.5;exitDx=0;exitDy=0;" edge="1" parent="1" source="cmGgds7QlrzbW8-zQxUZ-8" target="cmGgds7QlrzbW8-zQxUZ-10">
          <mxGeometry relative="1" as="geometry">
            <mxPoint x="135" y="-740" as="targetPoint" />
          </mxGeometry>
        </mxCell>
        <mxCell id="cmGgds7QlrzbW8-zQxUZ-7" style="edgeStyle=orthogonalEdgeStyle;rounded=0;orthogonalLoop=1;jettySize=auto;html=1;entryX=0.5;entryY=0;entryDx=0;entryDy=0;" edge="1" parent="1" source="cmGgds7QlrzbW8-zQxUZ-8" target="cmGgds7QlrzbW8-zQxUZ-14">
          <mxGeometry relative="1" as="geometry">
            <mxPoint x="500" y="-890" as="targetPoint" />
          </mxGeometry>
        </mxCell>
        <mxCell id="cmGgds7QlrzbW8-zQxUZ-8" value="!estaVacia()" style="rhombus;whiteSpace=wrap;html=1;" vertex="1" parent="1">
          <mxGeometry x="82.5" y="-980" width="105" height="80" as="geometry" />
        </mxCell>
        <mxCell id="cmGgds7QlrzbW8-zQxUZ-9" style="edgeStyle=orthogonalEdgeStyle;rounded=0;orthogonalLoop=1;jettySize=auto;html=1;entryX=0;entryY=0.5;entryDx=0;entryDy=0;exitX=0.5;exitY=1;exitDx=0;exitDy=0;exitPerimeter=0;" edge="1" parent="1" source="cmGgds7QlrzbW8-zQxUZ-10" target="cmGgds7QlrzbW8-zQxUZ-58">
          <mxGeometry relative="1" as="geometry" />
        </mxCell>
        <mxCell id="cmGgds7QlrzbW8-zQxUZ-10" value="&quot;Lista vacia!&quot;" style="shape=document;whiteSpace=wrap;html=1;boundedLbl=1;size=0.125;" vertex="1" parent="1">
          <mxGeometry x="10" y="-740" width="100" height="50" as="geometry" />
        </mxCell>
        <mxCell id="cmGgds7QlrzbW8-zQxUZ-11" value="" style="edgeStyle=orthogonalEdgeStyle;rounded=0;orthogonalLoop=1;jettySize=auto;html=1;" edge="1" parent="1" source="cmGgds7QlrzbW8-zQxUZ-12" target="cmGgds7QlrzbW8-zQxUZ-56">
          <mxGeometry relative="1" as="geometry" />
        </mxCell>
        <mxCell id="cmGgds7QlrzbW8-zQxUZ-12" value="return n" style="shape=process;whiteSpace=wrap;html=1;backgroundOutline=1;" vertex="1" parent="1">
          <mxGeometry x="100" y="-300" width="120" height="40" as="geometry" />
        </mxCell>
        <mxCell id="cmGgds7QlrzbW8-zQxUZ-13" value="" style="edgeStyle=orthogonalEdgeStyle;rounded=0;orthogonalLoop=1;jettySize=auto;html=1;" edge="1" parent="1" source="cmGgds7QlrzbW8-zQxUZ-14" target="cmGgds7QlrzbW8-zQxUZ-16">
          <mxGeometry relative="1" as="geometry" />
        </mxCell>
        <mxCell id="cmGgds7QlrzbW8-zQxUZ-14" value="p = inicio" style="rounded=0;whiteSpace=wrap;html=1;" vertex="1" parent="1">
          <mxGeometry x="425" y="-920" width="90" height="30" as="geometry" />
        </mxCell>
        <mxCell id="cmGgds7QlrzbW8-zQxUZ-15" value="" style="edgeStyle=orthogonalEdgeStyle;rounded=0;orthogonalLoop=1;jettySize=auto;html=1;" edge="1" parent="1" source="cmGgds7QlrzbW8-zQxUZ-16" target="cmGgds7QlrzbW8-zQxUZ-18">
          <mxGeometry relative="1" as="geometry" />
        </mxCell>
        <mxCell id="cmGgds7QlrzbW8-zQxUZ-16" value="ant = null" style="rounded=0;whiteSpace=wrap;html=1;" vertex="1" parent="1">
          <mxGeometry x="425" y="-880" width="90" height="30" as="geometry" />
        </mxCell>
        <mxCell id="cmGgds7QlrzbW8-zQxUZ-17" value="" style="edgeStyle=orthogonalEdgeStyle;rounded=0;orthogonalLoop=1;jettySize=auto;html=1;" edge="1" parent="1" source="cmGgds7QlrzbW8-zQxUZ-18" target="cmGgds7QlrzbW8-zQxUZ-21">
          <mxGeometry relative="1" as="geometry" />
        </mxCell>
        <mxCell id="cmGgds7QlrzbW8-zQxUZ-18" value="busqueda = false" style="rounded=0;whiteSpace=wrap;html=1;" vertex="1" parent="1">
          <mxGeometry x="407.5" y="-830" width="125" height="30" as="geometry" />
        </mxCell>
        <mxCell id="cmGgds7QlrzbW8-zQxUZ-19" style="edgeStyle=orthogonalEdgeStyle;rounded=0;orthogonalLoop=1;jettySize=auto;html=1;entryX=0.5;entryY=0;entryDx=0;entryDy=0;" edge="1" parent="1" target="cmGgds7QlrzbW8-zQxUZ-23">
          <mxGeometry relative="1" as="geometry">
            <mxPoint x="615" y="-650" as="targetPoint" />
            <mxPoint x="515" y="-720" as="sourcePoint" />
          </mxGeometry>
        </mxCell>
        <mxCell id="cmGgds7QlrzbW8-zQxUZ-20" style="edgeStyle=orthogonalEdgeStyle;rounded=0;orthogonalLoop=1;jettySize=auto;html=1;exitX=0.5;exitY=1;exitDx=0;exitDy=0;" edge="1" parent="1" source="cmGgds7QlrzbW8-zQxUZ-21" target="cmGgds7QlrzbW8-zQxUZ-49">
          <mxGeometry relative="1" as="geometry">
            <mxPoint x="230" y="-530.0000000000002" as="targetPoint" />
          </mxGeometry>
        </mxCell>
        <mxCell id="cmGgds7QlrzbW8-zQxUZ-21" value="&lt;div&gt;p != null&lt;/div&gt;&lt;div&gt;AND&lt;/div&gt;&lt;div&gt;!busqueda&lt;br&gt;&lt;/div&gt;" style="rhombus;whiteSpace=wrap;html=1;rounded=0;" vertex="1" parent="1">
          <mxGeometry x="410" y="-770" width="120" height="100" as="geometry" />
        </mxCell>
        <mxCell id="cmGgds7QlrzbW8-zQxUZ-22" value="" style="edgeStyle=orthogonalEdgeStyle;rounded=0;orthogonalLoop=1;jettySize=auto;html=1;" edge="1" parent="1" source="cmGgds7QlrzbW8-zQxUZ-23" target="cmGgds7QlrzbW8-zQxUZ-26">
          <mxGeometry relative="1" as="geometry" />
        </mxCell>
        <mxCell id="cmGgds7QlrzbW8-zQxUZ-23" value="comparacion = dato.compareTo(p.dato)" style="shape=process;whiteSpace=wrap;html=1;backgroundOutline=1;" vertex="1" parent="1">
          <mxGeometry x="565" y="-700" width="190" height="40" as="geometry" />
        </mxCell>
        <mxCell id="cmGgds7QlrzbW8-zQxUZ-24" style="edgeStyle=orthogonalEdgeStyle;rounded=0;orthogonalLoop=1;jettySize=auto;html=1;entryX=0.5;entryY=0;entryDx=0;entryDy=0;" edge="1" parent="1" source="cmGgds7QlrzbW8-zQxUZ-26" target="cmGgds7QlrzbW8-zQxUZ-28">
          <mxGeometry relative="1" as="geometry" />
        </mxCell>
        <mxCell id="cmGgds7QlrzbW8-zQxUZ-25" style="edgeStyle=orthogonalEdgeStyle;rounded=0;orthogonalLoop=1;jettySize=auto;html=1;entryX=0.5;entryY=0;entryDx=0;entryDy=0;exitX=0;exitY=0.5;exitDx=0;exitDy=0;" edge="1" parent="1" source="cmGgds7QlrzbW8-zQxUZ-26" target="cmGgds7QlrzbW8-zQxUZ-33">
          <mxGeometry relative="1" as="geometry" />
        </mxCell>
        <mxCell id="cmGgds7QlrzbW8-zQxUZ-26" value="&lt;div&gt;comparacion &amp;gt; 0&lt;br&gt;&lt;/div&gt;" style="rhombus;whiteSpace=wrap;html=1;" vertex="1" parent="1">
          <mxGeometry x="596.25" y="-640" width="127.5" height="60" as="geometry" />
        </mxCell>
        <mxCell id="cmGgds7QlrzbW8-zQxUZ-27" value="" style="edgeStyle=orthogonalEdgeStyle;rounded=0;orthogonalLoop=1;jettySize=auto;html=1;" edge="1" parent="1" source="cmGgds7QlrzbW8-zQxUZ-28" target="cmGgds7QlrzbW8-zQxUZ-30">
          <mxGeometry relative="1" as="geometry" />
        </mxCell>
        <mxCell id="cmGgds7QlrzbW8-zQxUZ-28" value="ant = p" style="rounded=0;whiteSpace=wrap;html=1;" vertex="1" parent="1">
          <mxGeometry x="742" y="-577.5" width="70" height="30" as="geometry" />
        </mxCell>
        <mxCell id="cmGgds7QlrzbW8-zQxUZ-29" style="edgeStyle=orthogonalEdgeStyle;rounded=0;orthogonalLoop=1;jettySize=auto;html=1;entryX=1;entryY=0.5;entryDx=0;entryDy=0;exitX=0.5;exitY=1;exitDx=0;exitDy=0;" edge="1" parent="1" source="cmGgds7QlrzbW8-zQxUZ-30" target="cmGgds7QlrzbW8-zQxUZ-43">
          <mxGeometry relative="1" as="geometry">
            <mxPoint x="785" y="-320" as="targetPoint" />
          </mxGeometry>
        </mxCell>
        <mxCell id="cmGgds7QlrzbW8-zQxUZ-30" value="p = p.siguiente" style="whiteSpace=wrap;html=1;rounded=0;" vertex="1" parent="1">
          <mxGeometry x="742" y="-520" width="70" height="35" as="geometry" />
        </mxCell>
        <mxCell id="cmGgds7QlrzbW8-zQxUZ-31" style="edgeStyle=orthogonalEdgeStyle;rounded=0;orthogonalLoop=1;jettySize=auto;html=1;entryX=0.5;entryY=0;entryDx=0;entryDy=0;exitX=1;exitY=0.5;exitDx=0;exitDy=0;" edge="1" parent="1" source="cmGgds7QlrzbW8-zQxUZ-33" target="cmGgds7QlrzbW8-zQxUZ-37">
          <mxGeometry relative="1" as="geometry" />
        </mxCell>
        <mxCell id="cmGgds7QlrzbW8-zQxUZ-32" style="edgeStyle=orthogonalEdgeStyle;rounded=0;orthogonalLoop=1;jettySize=auto;html=1;entryX=0.5;entryY=0;entryDx=0;entryDy=0;exitX=0;exitY=0.5;exitDx=0;exitDy=0;" edge="1" parent="1" source="cmGgds7QlrzbW8-zQxUZ-33" target="cmGgds7QlrzbW8-zQxUZ-35">
          <mxGeometry relative="1" as="geometry" />
        </mxCell>
        <mxCell id="cmGgds7QlrzbW8-zQxUZ-33" value="comparacion == 0" style="rhombus;whiteSpace=wrap;html=1;" vertex="1" parent="1">
          <mxGeometry x="475" y="-580" width="150" height="60" as="geometry" />
        </mxCell>
        <mxCell id="cmGgds7QlrzbW8-zQxUZ-34" style="edgeStyle=orthogonalEdgeStyle;rounded=0;orthogonalLoop=1;jettySize=auto;html=1;exitX=0.5;exitY=1;exitDx=0;exitDy=0;entryX=0;entryY=0.5;entryDx=0;entryDy=0;" edge="1" parent="1" source="cmGgds7QlrzbW8-zQxUZ-35" target="cmGgds7QlrzbW8-zQxUZ-41">
          <mxGeometry relative="1" as="geometry">
            <mxPoint x="405" y="-360" as="targetPoint" />
          </mxGeometry>
        </mxCell>
        <mxCell id="cmGgds7QlrzbW8-zQxUZ-35" value="p = null" style="rounded=0;whiteSpace=wrap;html=1;" vertex="1" parent="1">
          <mxGeometry x="395" y="-500" width="90" height="30" as="geometry" />
        </mxCell>
        <mxCell id="cmGgds7QlrzbW8-zQxUZ-36" value="" style="edgeStyle=orthogonalEdgeStyle;rounded=0;orthogonalLoop=1;jettySize=auto;html=1;" edge="1" parent="1" source="cmGgds7QlrzbW8-zQxUZ-37" target="cmGgds7QlrzbW8-zQxUZ-39">
          <mxGeometry relative="1" as="geometry" />
        </mxCell>
        <mxCell id="cmGgds7QlrzbW8-zQxUZ-37" value="busqueda = true" style="rounded=0;whiteSpace=wrap;html=1;" vertex="1" parent="1">
          <mxGeometry x="610" y="-500" width="100" height="30" as="geometry" />
        </mxCell>
        <mxCell id="cmGgds7QlrzbW8-zQxUZ-38" style="edgeStyle=orthogonalEdgeStyle;rounded=0;orthogonalLoop=1;jettySize=auto;html=1;entryX=1;entryY=0.5;entryDx=0;entryDy=0;exitX=0.5;exitY=1;exitDx=0;exitDy=0;" edge="1" parent="1" source="cmGgds7QlrzbW8-zQxUZ-39" target="cmGgds7QlrzbW8-zQxUZ-41">
          <mxGeometry relative="1" as="geometry" />
        </mxCell>
        <mxCell id="cmGgds7QlrzbW8-zQxUZ-39" value="n = p" style="rounded=0;whiteSpace=wrap;html=1;" vertex="1" parent="1">
          <mxGeometry x="630" y="-450" width="60" height="30" as="geometry" />
        </mxCell>
        <mxCell id="cmGgds7QlrzbW8-zQxUZ-40" style="edgeStyle=orthogonalEdgeStyle;rounded=0;orthogonalLoop=1;jettySize=auto;html=1;entryX=0;entryY=0.5;entryDx=0;entryDy=0;exitX=0.5;exitY=1;exitDx=0;exitDy=0;" edge="1" parent="1" source="cmGgds7QlrzbW8-zQxUZ-41" target="cmGgds7QlrzbW8-zQxUZ-43">
          <mxGeometry relative="1" as="geometry" />
        </mxCell>
        <mxCell id="cmGgds7QlrzbW8-zQxUZ-41" value="" style="ellipse;whiteSpace=wrap;html=1;aspect=fixed;" vertex="1" parent="1">
          <mxGeometry x="523.75" y="-420" width="40" height="40" as="geometry" />
        </mxCell>
        <mxCell id="cmGgds7QlrzbW8-zQxUZ-42" value="" style="edgeStyle=orthogonalEdgeStyle;rounded=0;orthogonalLoop=1;jettySize=auto;html=1;exitX=0.5;exitY=1;exitDx=0;exitDy=0;entryX=0;entryY=0.5;entryDx=0;entryDy=0;" edge="1" parent="1" source="cmGgds7QlrzbW8-zQxUZ-43" target="cmGgds7QlrzbW8-zQxUZ-44">
          <mxGeometry relative="1" as="geometry" />
        </mxCell>
        <mxCell id="cmGgds7QlrzbW8-zQxUZ-43" value="" style="ellipse;whiteSpace=wrap;html=1;aspect=fixed;" vertex="1" parent="1">
          <mxGeometry x="618.75" y="-365" width="40" height="40" as="geometry" />
        </mxCell>
        <mxCell id="cmGgds7QlrzbW8-zQxUZ-44" value="1" style="ellipse;whiteSpace=wrap;html=1;aspect=fixed;" vertex="1" parent="1">
          <mxGeometry x="715" y="-325" width="40" height="40" as="geometry" />
        </mxCell>
        <mxCell id="cmGgds7QlrzbW8-zQxUZ-45" style="edgeStyle=orthogonalEdgeStyle;rounded=0;orthogonalLoop=1;jettySize=auto;html=1;" edge="1" parent="1" source="cmGgds7QlrzbW8-zQxUZ-46">
          <mxGeometry relative="1" as="geometry">
            <mxPoint x="480" y="-790.0000000000002" as="targetPoint" />
          </mxGeometry>
        </mxCell>
        <mxCell id="cmGgds7QlrzbW8-zQxUZ-46" value="1" style="ellipse;whiteSpace=wrap;html=1;aspect=fixed;" vertex="1" parent="1">
          <mxGeometry x="730" y="-810" width="40" height="40" as="geometry" />
        </mxCell>
        <mxCell id="cmGgds7QlrzbW8-zQxUZ-47" style="edgeStyle=orthogonalEdgeStyle;rounded=0;orthogonalLoop=1;jettySize=auto;html=1;exitX=1;exitY=0.5;exitDx=0;exitDy=0;" edge="1" parent="1" source="cmGgds7QlrzbW8-zQxUZ-49" target="cmGgds7QlrzbW8-zQxUZ-51">
          <mxGeometry relative="1" as="geometry">
            <mxPoint x="340" y="-585" as="targetPoint" />
          </mxGeometry>
        </mxCell>
        <mxCell id="cmGgds7QlrzbW8-zQxUZ-48" style="edgeStyle=orthogonalEdgeStyle;rounded=0;orthogonalLoop=1;jettySize=auto;html=1;exitX=0;exitY=0.5;exitDx=0;exitDy=0;" edge="1" parent="1" source="cmGgds7QlrzbW8-zQxUZ-49" target="cmGgds7QlrzbW8-zQxUZ-53">
          <mxGeometry relative="1" as="geometry">
            <mxPoint x="149.9999999999999" y="-555" as="targetPoint" />
          </mxGeometry>
        </mxCell>
        <mxCell id="cmGgds7QlrzbW8-zQxUZ-49" value="busqueda" style="rhombus;whiteSpace=wrap;html=1;" vertex="1" parent="1">
          <mxGeometry x="220" y="-600" width="80" height="75" as="geometry" />
        </mxCell>
        <mxCell id="cmGgds7QlrzbW8-zQxUZ-50" style="edgeStyle=orthogonalEdgeStyle;rounded=0;orthogonalLoop=1;jettySize=auto;html=1;entryX=1;entryY=0.5;entryDx=0;entryDy=0;exitX=0.513;exitY=0.981;exitDx=0;exitDy=0;exitPerimeter=0;" edge="1" parent="1" source="cmGgds7QlrzbW8-zQxUZ-51" target="cmGgds7QlrzbW8-zQxUZ-55">
          <mxGeometry relative="1" as="geometry" />
        </mxCell>
        <mxCell id="cmGgds7QlrzbW8-zQxUZ-51" value="&lt;div&gt;&quot;Nodo&amp;nbsp;&lt;/div&gt;&lt;div&gt;encontrado&quot;&lt;/div&gt;" style="shape=document;whiteSpace=wrap;html=1;boundedLbl=1;size=0.125;" vertex="1" parent="1">
          <mxGeometry x="290" y="-515" width="90" height="45" as="geometry" />
        </mxCell>
        <mxCell id="cmGgds7QlrzbW8-zQxUZ-52" style="edgeStyle=orthogonalEdgeStyle;rounded=0;orthogonalLoop=1;jettySize=auto;html=1;entryX=0;entryY=0.5;entryDx=0;entryDy=0;exitX=0.513;exitY=0.983;exitDx=0;exitDy=0;exitPerimeter=0;" edge="1" parent="1" source="cmGgds7QlrzbW8-zQxUZ-53" target="cmGgds7QlrzbW8-zQxUZ-55">
          <mxGeometry relative="1" as="geometry" />
        </mxCell>
        <mxCell id="cmGgds7QlrzbW8-zQxUZ-53" value="&lt;div&gt;&quot;Nodo&amp;nbsp;&lt;/div&gt;&lt;div&gt;inexistente&quot;&lt;/div&gt;" style="shape=document;whiteSpace=wrap;html=1;boundedLbl=1;size=0.25;" vertex="1" parent="1">
          <mxGeometry x="140" y="-515" width="90" height="50" as="geometry" />
        </mxCell>
        <mxCell id="cmGgds7QlrzbW8-zQxUZ-54" value="" style="edgeStyle=orthogonalEdgeStyle;rounded=0;orthogonalLoop=1;jettySize=auto;html=1;exitX=0.5;exitY=1;exitDx=0;exitDy=0;entryX=1;entryY=0.5;entryDx=0;entryDy=0;" edge="1" parent="1" source="cmGgds7QlrzbW8-zQxUZ-55" target="cmGgds7QlrzbW8-zQxUZ-58">
          <mxGeometry relative="1" as="geometry" />
        </mxCell>
        <mxCell id="cmGgds7QlrzbW8-zQxUZ-55" value="" style="ellipse;whiteSpace=wrap;html=1;aspect=fixed;" vertex="1" parent="1">
          <mxGeometry x="238.75" y="-450" width="42.5" height="42.5" as="geometry" />
        </mxCell>
        <mxCell id="cmGgds7QlrzbW8-zQxUZ-56" value="" style="ellipse;whiteSpace=wrap;html=1;" vertex="1" parent="1">
          <mxGeometry x="120" y="-220" width="80" height="40" as="geometry" />
        </mxCell>
        <mxCell id="cmGgds7QlrzbW8-zQxUZ-57" style="edgeStyle=orthogonalEdgeStyle;rounded=0;orthogonalLoop=1;jettySize=auto;html=1;entryX=0.5;entryY=0;entryDx=0;entryDy=0;" edge="1" parent="1" source="cmGgds7QlrzbW8-zQxUZ-58" target="cmGgds7QlrzbW8-zQxUZ-12">
          <mxGeometry relative="1" as="geometry" />
        </mxCell>
        <mxCell id="cmGgds7QlrzbW8-zQxUZ-58" value="" style="ellipse;whiteSpace=wrap;html=1;aspect=fixed;" vertex="1" parent="1">
          <mxGeometry x="140" y="-390" width="40" height="40" as="geometry" />
        </mxCell>
        <mxCell id="cmGgds7QlrzbW8-zQxUZ-60" value="T" style="text;html=1;align=center;verticalAlign=middle;whiteSpace=wrap;rounded=0;" vertex="1" parent="1">
          <mxGeometry x="530" y="-750" width="20" height="30" as="geometry" />
        </mxCell>
        <mxCell id="xjbsJ7zRDnxqVxd6qf-I-1" value="T" style="text;html=1;align=center;verticalAlign=middle;whiteSpace=wrap;rounded=0;" vertex="1" parent="1">
          <mxGeometry x="715" y="-640" width="20" height="30" as="geometry" />
        </mxCell>
        <mxCell id="xjbsJ7zRDnxqVxd6qf-I-3" value="T" style="text;html=1;align=center;verticalAlign=middle;whiteSpace=wrap;rounded=0;" vertex="1" parent="1">
          <mxGeometry x="290" y="-590" width="20" height="30" as="geometry" />
        </mxCell>
        <mxCell id="xjbsJ7zRDnxqVxd6qf-I-4" value="T" style="text;html=1;align=center;verticalAlign=middle;whiteSpace=wrap;rounded=0;" vertex="1" parent="1">
          <mxGeometry x="187.5" y="-970" width="20" height="30" as="geometry" />
        </mxCell>
        <mxCell id="xjbsJ7zRDnxqVxd6qf-I-5" value="F" style="text;html=1;align=center;verticalAlign=middle;whiteSpace=wrap;rounded=0;" vertex="1" parent="1">
          <mxGeometry x="62.5" y="-970" width="20" height="30" as="geometry" />
        </mxCell>
        <mxCell id="xjbsJ7zRDnxqVxd6qf-I-6" value="F" style="text;html=1;align=center;verticalAlign=middle;whiteSpace=wrap;rounded=0;" vertex="1" parent="1">
          <mxGeometry x="450" y="-670" width="20" height="30" as="geometry" />
        </mxCell>
        <mxCell id="xjbsJ7zRDnxqVxd6qf-I-9" value="F" style="text;html=1;align=center;verticalAlign=middle;whiteSpace=wrap;rounded=0;" vertex="1" parent="1">
          <mxGeometry x="580" y="-640" width="20" height="30" as="geometry" />
        </mxCell>
        <mxCell id="xjbsJ7zRDnxqVxd6qf-I-10" value="F" style="text;html=1;align=center;verticalAlign=middle;whiteSpace=wrap;rounded=0;" vertex="1" parent="1">
          <mxGeometry x="465" y="-577.5" width="20" height="30" as="geometry" />
        </mxCell>
        <mxCell id="xjbsJ7zRDnxqVxd6qf-I-11" value="T" style="text;html=1;align=center;verticalAlign=middle;whiteSpace=wrap;rounded=0;" vertex="1" parent="1">
          <mxGeometry x="618.75" y="-577.5" width="20" height="30" as="geometry" />
        </mxCell>
        <mxCell id="xjbsJ7zRDnxqVxd6qf-I-13" value="F" style="text;html=1;align=center;verticalAlign=middle;whiteSpace=wrap;rounded=0;" vertex="1" parent="1">
          <mxGeometry x="207.5" y="-590" width="20" height="30" as="geometry" />
        </mxCell>
      </root>
    </mxGraphModel>
  </diagram>
  <diagram id="LI5-u_AFbD1Fejd1iXNN" name="DF04">
    <mxGraphModel grid="1" page="1" gridSize="10" guides="1" tooltips="1" connect="1" arrows="1" fold="1" pageScale="1" pageWidth="827" pageHeight="1169" math="0" shadow="0">
      <root>
        <mxCell id="0" />
        <mxCell id="1" parent="0" />
        <mxCell id="hC0q6JcySRWqP5jWDdLD-1" value="&lt;div&gt;+ eliminar(Comparable e): NodoSimple&lt;/div&gt;" style="text;whiteSpace=wrap;html=1;" vertex="1" parent="1">
          <mxGeometry x="10" y="-1140" width="260" height="30" as="geometry" />
        </mxCell>
        <mxCell id="hC0q6JcySRWqP5jWDdLD-2" value="" style="edgeStyle=orthogonalEdgeStyle;rounded=0;orthogonalLoop=1;jettySize=auto;html=1;" edge="1" parent="1" source="hC0q6JcySRWqP5jWDdLD-3" target="hC0q6JcySRWqP5jWDdLD-5">
          <mxGeometry relative="1" as="geometry" />
        </mxCell>
        <mxCell id="hC0q6JcySRWqP5jWDdLD-3" value="" style="ellipse;whiteSpace=wrap;html=1;" vertex="1" parent="1">
          <mxGeometry x="95" y="-1110" width="80" height="40" as="geometry" />
        </mxCell>
        <mxCell id="hC0q6JcySRWqP5jWDdLD-4" value="" style="edgeStyle=orthogonalEdgeStyle;rounded=0;orthogonalLoop=1;jettySize=auto;html=1;" edge="1" parent="1" source="hC0q6JcySRWqP5jWDdLD-5" target="hC0q6JcySRWqP5jWDdLD-8">
          <mxGeometry relative="1" as="geometry" />
        </mxCell>
        <mxCell id="hC0q6JcySRWqP5jWDdLD-5" value="n = null" style="whiteSpace=wrap;html=1;" vertex="1" parent="1">
          <mxGeometry x="90" y="-1050" width="90" height="35" as="geometry" />
        </mxCell>
        <mxCell id="hC0q6JcySRWqP5jWDdLD-6" style="edgeStyle=orthogonalEdgeStyle;rounded=0;orthogonalLoop=1;jettySize=auto;html=1;exitX=0;exitY=0.5;exitDx=0;exitDy=0;" edge="1" parent="1" source="hC0q6JcySRWqP5jWDdLD-8" target="hC0q6JcySRWqP5jWDdLD-10">
          <mxGeometry relative="1" as="geometry">
            <mxPoint x="135" y="-740" as="targetPoint" />
          </mxGeometry>
        </mxCell>
        <mxCell id="hC0q6JcySRWqP5jWDdLD-7" style="edgeStyle=orthogonalEdgeStyle;rounded=0;orthogonalLoop=1;jettySize=auto;html=1;entryX=0.5;entryY=0;entryDx=0;entryDy=0;" edge="1" parent="1" source="hC0q6JcySRWqP5jWDdLD-8" target="hC0q6JcySRWqP5jWDdLD-14">
          <mxGeometry relative="1" as="geometry">
            <mxPoint x="500" y="-890" as="targetPoint" />
          </mxGeometry>
        </mxCell>
        <mxCell id="hC0q6JcySRWqP5jWDdLD-8" value="!estaVacia()" style="rhombus;whiteSpace=wrap;html=1;" vertex="1" parent="1">
          <mxGeometry x="82.5" y="-980" width="105" height="80" as="geometry" />
        </mxCell>
        <mxCell id="hC0q6JcySRWqP5jWDdLD-9" style="edgeStyle=orthogonalEdgeStyle;rounded=0;orthogonalLoop=1;jettySize=auto;html=1;entryX=0;entryY=0.5;entryDx=0;entryDy=0;exitX=0.5;exitY=1;exitDx=0;exitDy=0;exitPerimeter=0;" edge="1" parent="1" source="hC0q6JcySRWqP5jWDdLD-10" target="hC0q6JcySRWqP5jWDdLD-58">
          <mxGeometry relative="1" as="geometry" />
        </mxCell>
        <mxCell id="hC0q6JcySRWqP5jWDdLD-10" value="&quot;Lista vacia!&quot;" style="shape=document;whiteSpace=wrap;html=1;boundedLbl=1;size=0.125;" vertex="1" parent="1">
          <mxGeometry x="10" y="-740" width="100" height="50" as="geometry" />
        </mxCell>
        <mxCell id="hC0q6JcySRWqP5jWDdLD-11" value="" style="edgeStyle=orthogonalEdgeStyle;rounded=0;orthogonalLoop=1;jettySize=auto;html=1;" edge="1" parent="1" source="hC0q6JcySRWqP5jWDdLD-12" target="hC0q6JcySRWqP5jWDdLD-56">
          <mxGeometry relative="1" as="geometry" />
        </mxCell>
        <mxCell id="hC0q6JcySRWqP5jWDdLD-12" value="return n" style="shape=process;whiteSpace=wrap;html=1;backgroundOutline=1;" vertex="1" parent="1">
          <mxGeometry x="100" y="-300" width="120" height="40" as="geometry" />
        </mxCell>
        <mxCell id="hC0q6JcySRWqP5jWDdLD-13" value="" style="edgeStyle=orthogonalEdgeStyle;rounded=0;orthogonalLoop=1;jettySize=auto;html=1;" edge="1" parent="1" source="hC0q6JcySRWqP5jWDdLD-14" target="hC0q6JcySRWqP5jWDdLD-16">
          <mxGeometry relative="1" as="geometry" />
        </mxCell>
        <mxCell id="hC0q6JcySRWqP5jWDdLD-14" value="p = inicio" style="rounded=0;whiteSpace=wrap;html=1;" vertex="1" parent="1">
          <mxGeometry x="425" y="-920" width="90" height="30" as="geometry" />
        </mxCell>
        <mxCell id="hC0q6JcySRWqP5jWDdLD-15" value="" style="edgeStyle=orthogonalEdgeStyle;rounded=0;orthogonalLoop=1;jettySize=auto;html=1;" edge="1" parent="1" source="hC0q6JcySRWqP5jWDdLD-16" target="hC0q6JcySRWqP5jWDdLD-18">
          <mxGeometry relative="1" as="geometry" />
        </mxCell>
        <mxCell id="hC0q6JcySRWqP5jWDdLD-16" value="ant = null" style="rounded=0;whiteSpace=wrap;html=1;" vertex="1" parent="1">
          <mxGeometry x="425" y="-880" width="90" height="30" as="geometry" />
        </mxCell>
        <mxCell id="hC0q6JcySRWqP5jWDdLD-17" value="" style="edgeStyle=orthogonalEdgeStyle;rounded=0;orthogonalLoop=1;jettySize=auto;html=1;" edge="1" parent="1" source="hC0q6JcySRWqP5jWDdLD-18" target="hC0q6JcySRWqP5jWDdLD-21">
          <mxGeometry relative="1" as="geometry" />
        </mxCell>
        <mxCell id="hC0q6JcySRWqP5jWDdLD-18" value="busqueda = false" style="rounded=0;whiteSpace=wrap;html=1;" vertex="1" parent="1">
          <mxGeometry x="407.5" y="-830" width="125" height="30" as="geometry" />
        </mxCell>
        <mxCell id="hC0q6JcySRWqP5jWDdLD-19" style="edgeStyle=orthogonalEdgeStyle;rounded=0;orthogonalLoop=1;jettySize=auto;html=1;entryX=0.5;entryY=0;entryDx=0;entryDy=0;" edge="1" parent="1" target="hC0q6JcySRWqP5jWDdLD-23">
          <mxGeometry relative="1" as="geometry">
            <mxPoint x="615" y="-650" as="targetPoint" />
            <mxPoint x="515" y="-720" as="sourcePoint" />
          </mxGeometry>
        </mxCell>
        <mxCell id="hC0q6JcySRWqP5jWDdLD-20" style="edgeStyle=orthogonalEdgeStyle;rounded=0;orthogonalLoop=1;jettySize=auto;html=1;exitX=0.5;exitY=1;exitDx=0;exitDy=0;" edge="1" parent="1" source="hC0q6JcySRWqP5jWDdLD-21" target="hC0q6JcySRWqP5jWDdLD-49">
          <mxGeometry relative="1" as="geometry">
            <mxPoint x="230" y="-530.0000000000002" as="targetPoint" />
          </mxGeometry>
        </mxCell>
        <mxCell id="hC0q6JcySRWqP5jWDdLD-21" value="&lt;div&gt;p != null&lt;/div&gt;&lt;div&gt;AND&lt;/div&gt;&lt;div&gt;!busqueda&lt;br&gt;&lt;/div&gt;" style="rhombus;whiteSpace=wrap;html=1;rounded=0;" vertex="1" parent="1">
          <mxGeometry x="410" y="-770" width="120" height="100" as="geometry" />
        </mxCell>
        <mxCell id="hC0q6JcySRWqP5jWDdLD-22" value="" style="edgeStyle=orthogonalEdgeStyle;rounded=0;orthogonalLoop=1;jettySize=auto;html=1;" edge="1" parent="1" source="hC0q6JcySRWqP5jWDdLD-23" target="hC0q6JcySRWqP5jWDdLD-26">
          <mxGeometry relative="1" as="geometry" />
        </mxCell>
        <mxCell id="hC0q6JcySRWqP5jWDdLD-23" value="comparacion = dato.compareTo(p.dato)" style="shape=process;whiteSpace=wrap;html=1;backgroundOutline=1;" vertex="1" parent="1">
          <mxGeometry x="565" y="-700" width="190" height="40" as="geometry" />
        </mxCell>
        <mxCell id="hC0q6JcySRWqP5jWDdLD-24" style="edgeStyle=orthogonalEdgeStyle;rounded=0;orthogonalLoop=1;jettySize=auto;html=1;entryX=0.5;entryY=0;entryDx=0;entryDy=0;" edge="1" parent="1" source="hC0q6JcySRWqP5jWDdLD-26" target="hC0q6JcySRWqP5jWDdLD-28">
          <mxGeometry relative="1" as="geometry" />
        </mxCell>
        <mxCell id="hC0q6JcySRWqP5jWDdLD-25" style="edgeStyle=orthogonalEdgeStyle;rounded=0;orthogonalLoop=1;jettySize=auto;html=1;entryX=0.5;entryY=0;entryDx=0;entryDy=0;exitX=0;exitY=0.5;exitDx=0;exitDy=0;" edge="1" parent="1" source="hC0q6JcySRWqP5jWDdLD-26" target="hC0q6JcySRWqP5jWDdLD-33">
          <mxGeometry relative="1" as="geometry" />
        </mxCell>
        <mxCell id="hC0q6JcySRWqP5jWDdLD-26" value="&lt;div&gt;comparacion &amp;gt; 0&lt;br&gt;&lt;/div&gt;" style="rhombus;whiteSpace=wrap;html=1;" vertex="1" parent="1">
          <mxGeometry x="596.25" y="-640" width="127.5" height="60" as="geometry" />
        </mxCell>
        <mxCell id="hC0q6JcySRWqP5jWDdLD-27" value="" style="edgeStyle=orthogonalEdgeStyle;rounded=0;orthogonalLoop=1;jettySize=auto;html=1;" edge="1" parent="1" source="hC0q6JcySRWqP5jWDdLD-28" target="hC0q6JcySRWqP5jWDdLD-30">
          <mxGeometry relative="1" as="geometry" />
        </mxCell>
        <mxCell id="hC0q6JcySRWqP5jWDdLD-28" value="ant = p" style="rounded=0;whiteSpace=wrap;html=1;" vertex="1" parent="1">
          <mxGeometry x="742" y="-577.5" width="70" height="30" as="geometry" />
        </mxCell>
        <mxCell id="hC0q6JcySRWqP5jWDdLD-29" style="edgeStyle=orthogonalEdgeStyle;rounded=0;orthogonalLoop=1;jettySize=auto;html=1;entryX=1;entryY=0.5;entryDx=0;entryDy=0;exitX=0.5;exitY=1;exitDx=0;exitDy=0;" edge="1" parent="1" source="hC0q6JcySRWqP5jWDdLD-30" target="hC0q6JcySRWqP5jWDdLD-43">
          <mxGeometry relative="1" as="geometry">
            <mxPoint x="785" y="-320" as="targetPoint" />
          </mxGeometry>
        </mxCell>
        <mxCell id="hC0q6JcySRWqP5jWDdLD-30" value="p = p.siguiente" style="whiteSpace=wrap;html=1;rounded=0;" vertex="1" parent="1">
          <mxGeometry x="742" y="-520" width="70" height="35" as="geometry" />
        </mxCell>
        <mxCell id="hC0q6JcySRWqP5jWDdLD-31" style="edgeStyle=orthogonalEdgeStyle;rounded=0;orthogonalLoop=1;jettySize=auto;html=1;entryX=0.5;entryY=0;entryDx=0;entryDy=0;exitX=1;exitY=0.5;exitDx=0;exitDy=0;" edge="1" parent="1" source="hC0q6JcySRWqP5jWDdLD-33" target="hC0q6JcySRWqP5jWDdLD-37">
          <mxGeometry relative="1" as="geometry" />
        </mxCell>
        <mxCell id="hC0q6JcySRWqP5jWDdLD-32" style="edgeStyle=orthogonalEdgeStyle;rounded=0;orthogonalLoop=1;jettySize=auto;html=1;entryX=0.5;entryY=0;entryDx=0;entryDy=0;exitX=0;exitY=0.5;exitDx=0;exitDy=0;" edge="1" parent="1" source="hC0q6JcySRWqP5jWDdLD-33" target="hC0q6JcySRWqP5jWDdLD-35">
          <mxGeometry relative="1" as="geometry" />
        </mxCell>
        <mxCell id="hC0q6JcySRWqP5jWDdLD-33" value="comparacion == 0" style="rhombus;whiteSpace=wrap;html=1;" vertex="1" parent="1">
          <mxGeometry x="475" y="-580" width="150" height="60" as="geometry" />
        </mxCell>
        <mxCell id="hC0q6JcySRWqP5jWDdLD-34" style="edgeStyle=orthogonalEdgeStyle;rounded=0;orthogonalLoop=1;jettySize=auto;html=1;exitX=0.5;exitY=1;exitDx=0;exitDy=0;entryX=0;entryY=0.5;entryDx=0;entryDy=0;" edge="1" parent="1" source="hC0q6JcySRWqP5jWDdLD-35" target="hC0q6JcySRWqP5jWDdLD-41">
          <mxGeometry relative="1" as="geometry">
            <mxPoint x="405" y="-360" as="targetPoint" />
          </mxGeometry>
        </mxCell>
        <mxCell id="hC0q6JcySRWqP5jWDdLD-35" value="p = null" style="rounded=0;whiteSpace=wrap;html=1;" vertex="1" parent="1">
          <mxGeometry x="395" y="-500" width="90" height="30" as="geometry" />
        </mxCell>
        <mxCell id="hC0q6JcySRWqP5jWDdLD-36" value="" style="edgeStyle=orthogonalEdgeStyle;rounded=0;orthogonalLoop=1;jettySize=auto;html=1;" edge="1" parent="1" source="hC0q6JcySRWqP5jWDdLD-37" target="hC0q6JcySRWqP5jWDdLD-39">
          <mxGeometry relative="1" as="geometry" />
        </mxCell>
        <mxCell id="hC0q6JcySRWqP5jWDdLD-37" value="busqueda = true" style="rounded=0;whiteSpace=wrap;html=1;" vertex="1" parent="1">
          <mxGeometry x="610" y="-500" width="100" height="30" as="geometry" />
        </mxCell>
        <mxCell id="hC0q6JcySRWqP5jWDdLD-38" style="edgeStyle=orthogonalEdgeStyle;rounded=0;orthogonalLoop=1;jettySize=auto;html=1;entryX=1;entryY=0.5;entryDx=0;entryDy=0;exitX=0.5;exitY=1;exitDx=0;exitDy=0;" edge="1" parent="1" source="hC0q6JcySRWqP5jWDdLD-39" target="hC0q6JcySRWqP5jWDdLD-41">
          <mxGeometry relative="1" as="geometry" />
        </mxCell>
        <mxCell id="hC0q6JcySRWqP5jWDdLD-39" value="n = quitar(ant, p)" style="rounded=0;whiteSpace=wrap;html=1;" vertex="1" parent="1">
          <mxGeometry x="605" y="-450" width="110" height="30" as="geometry" />
        </mxCell>
        <mxCell id="hC0q6JcySRWqP5jWDdLD-40" style="edgeStyle=orthogonalEdgeStyle;rounded=0;orthogonalLoop=1;jettySize=auto;html=1;entryX=0;entryY=0.5;entryDx=0;entryDy=0;exitX=0.5;exitY=1;exitDx=0;exitDy=0;" edge="1" parent="1" source="hC0q6JcySRWqP5jWDdLD-41" target="hC0q6JcySRWqP5jWDdLD-43">
          <mxGeometry relative="1" as="geometry" />
        </mxCell>
        <mxCell id="hC0q6JcySRWqP5jWDdLD-41" value="" style="ellipse;whiteSpace=wrap;html=1;aspect=fixed;" vertex="1" parent="1">
          <mxGeometry x="523.75" y="-420" width="40" height="40" as="geometry" />
        </mxCell>
        <mxCell id="hC0q6JcySRWqP5jWDdLD-42" value="" style="edgeStyle=orthogonalEdgeStyle;rounded=0;orthogonalLoop=1;jettySize=auto;html=1;exitX=0.5;exitY=1;exitDx=0;exitDy=0;entryX=0;entryY=0.5;entryDx=0;entryDy=0;" edge="1" parent="1" source="hC0q6JcySRWqP5jWDdLD-43" target="hC0q6JcySRWqP5jWDdLD-44">
          <mxGeometry relative="1" as="geometry" />
        </mxCell>
        <mxCell id="hC0q6JcySRWqP5jWDdLD-43" value="" style="ellipse;whiteSpace=wrap;html=1;aspect=fixed;" vertex="1" parent="1">
          <mxGeometry x="618.75" y="-365" width="40" height="40" as="geometry" />
        </mxCell>
        <mxCell id="hC0q6JcySRWqP5jWDdLD-44" value="1" style="ellipse;whiteSpace=wrap;html=1;aspect=fixed;" vertex="1" parent="1">
          <mxGeometry x="715" y="-325" width="40" height="40" as="geometry" />
        </mxCell>
        <mxCell id="hC0q6JcySRWqP5jWDdLD-45" style="edgeStyle=orthogonalEdgeStyle;rounded=0;orthogonalLoop=1;jettySize=auto;html=1;" edge="1" parent="1" source="hC0q6JcySRWqP5jWDdLD-46">
          <mxGeometry relative="1" as="geometry">
            <mxPoint x="480" y="-790.0000000000002" as="targetPoint" />
          </mxGeometry>
        </mxCell>
        <mxCell id="hC0q6JcySRWqP5jWDdLD-46" value="1" style="ellipse;whiteSpace=wrap;html=1;aspect=fixed;" vertex="1" parent="1">
          <mxGeometry x="730" y="-810" width="40" height="40" as="geometry" />
        </mxCell>
        <mxCell id="hC0q6JcySRWqP5jWDdLD-47" style="edgeStyle=orthogonalEdgeStyle;rounded=0;orthogonalLoop=1;jettySize=auto;html=1;exitX=1;exitY=0.5;exitDx=0;exitDy=0;" edge="1" parent="1" source="hC0q6JcySRWqP5jWDdLD-49" target="hC0q6JcySRWqP5jWDdLD-51">
          <mxGeometry relative="1" as="geometry">
            <mxPoint x="340" y="-585" as="targetPoint" />
          </mxGeometry>
        </mxCell>
        <mxCell id="hC0q6JcySRWqP5jWDdLD-48" style="edgeStyle=orthogonalEdgeStyle;rounded=0;orthogonalLoop=1;jettySize=auto;html=1;exitX=0;exitY=0.5;exitDx=0;exitDy=0;" edge="1" parent="1" source="hC0q6JcySRWqP5jWDdLD-49" target="hC0q6JcySRWqP5jWDdLD-53">
          <mxGeometry relative="1" as="geometry">
            <mxPoint x="149.9999999999999" y="-555" as="targetPoint" />
          </mxGeometry>
        </mxCell>
        <mxCell id="hC0q6JcySRWqP5jWDdLD-49" value="busqueda" style="rhombus;whiteSpace=wrap;html=1;" vertex="1" parent="1">
          <mxGeometry x="220" y="-600" width="80" height="75" as="geometry" />
        </mxCell>
        <mxCell id="hC0q6JcySRWqP5jWDdLD-50" style="edgeStyle=orthogonalEdgeStyle;rounded=0;orthogonalLoop=1;jettySize=auto;html=1;entryX=1;entryY=0.5;entryDx=0;entryDy=0;exitX=0.513;exitY=0.981;exitDx=0;exitDy=0;exitPerimeter=0;" edge="1" parent="1" source="hC0q6JcySRWqP5jWDdLD-51" target="hC0q6JcySRWqP5jWDdLD-55">
          <mxGeometry relative="1" as="geometry" />
        </mxCell>
        <mxCell id="hC0q6JcySRWqP5jWDdLD-51" value="&lt;div&gt;&quot;Nodo&amp;nbsp;&lt;/div&gt;&lt;div&gt;eliminado&quot;&lt;/div&gt;" style="shape=document;whiteSpace=wrap;html=1;boundedLbl=1;size=0.125;" vertex="1" parent="1">
          <mxGeometry x="290" y="-515" width="90" height="45" as="geometry" />
        </mxCell>
        <mxCell id="hC0q6JcySRWqP5jWDdLD-52" style="edgeStyle=orthogonalEdgeStyle;rounded=0;orthogonalLoop=1;jettySize=auto;html=1;entryX=0;entryY=0.5;entryDx=0;entryDy=0;exitX=0.513;exitY=0.983;exitDx=0;exitDy=0;exitPerimeter=0;" edge="1" parent="1" source="hC0q6JcySRWqP5jWDdLD-53" target="hC0q6JcySRWqP5jWDdLD-55">
          <mxGeometry relative="1" as="geometry" />
        </mxCell>
        <mxCell id="hC0q6JcySRWqP5jWDdLD-53" value="&lt;div&gt;&quot;Nodo&amp;nbsp;&lt;/div&gt;&lt;div&gt;inexistente&quot;&lt;/div&gt;" style="shape=document;whiteSpace=wrap;html=1;boundedLbl=1;size=0.25;" vertex="1" parent="1">
          <mxGeometry x="140" y="-515" width="90" height="50" as="geometry" />
        </mxCell>
        <mxCell id="hC0q6JcySRWqP5jWDdLD-54" value="" style="edgeStyle=orthogonalEdgeStyle;rounded=0;orthogonalLoop=1;jettySize=auto;html=1;exitX=0.5;exitY=1;exitDx=0;exitDy=0;entryX=1;entryY=0.5;entryDx=0;entryDy=0;" edge="1" parent="1" source="hC0q6JcySRWqP5jWDdLD-55" target="hC0q6JcySRWqP5jWDdLD-58">
          <mxGeometry relative="1" as="geometry" />
        </mxCell>
        <mxCell id="hC0q6JcySRWqP5jWDdLD-55" value="" style="ellipse;whiteSpace=wrap;html=1;aspect=fixed;" vertex="1" parent="1">
          <mxGeometry x="238.75" y="-450" width="42.5" height="42.5" as="geometry" />
        </mxCell>
        <mxCell id="hC0q6JcySRWqP5jWDdLD-56" value="" style="ellipse;whiteSpace=wrap;html=1;" vertex="1" parent="1">
          <mxGeometry x="120" y="-220" width="80" height="40" as="geometry" />
        </mxCell>
        <mxCell id="hC0q6JcySRWqP5jWDdLD-57" style="edgeStyle=orthogonalEdgeStyle;rounded=0;orthogonalLoop=1;jettySize=auto;html=1;entryX=0.5;entryY=0;entryDx=0;entryDy=0;" edge="1" parent="1" source="hC0q6JcySRWqP5jWDdLD-58" target="hC0q6JcySRWqP5jWDdLD-12">
          <mxGeometry relative="1" as="geometry" />
        </mxCell>
        <mxCell id="hC0q6JcySRWqP5jWDdLD-58" value="" style="ellipse;whiteSpace=wrap;html=1;aspect=fixed;" vertex="1" parent="1">
          <mxGeometry x="140" y="-390" width="40" height="40" as="geometry" />
        </mxCell>
        <mxCell id="hC0q6JcySRWqP5jWDdLD-59" value="T" style="text;html=1;align=center;verticalAlign=middle;whiteSpace=wrap;rounded=0;" vertex="1" parent="1">
          <mxGeometry x="530" y="-750" width="20" height="30" as="geometry" />
        </mxCell>
        <mxCell id="hC0q6JcySRWqP5jWDdLD-60" value="T" style="text;html=1;align=center;verticalAlign=middle;whiteSpace=wrap;rounded=0;" vertex="1" parent="1">
          <mxGeometry x="715" y="-640" width="20" height="30" as="geometry" />
        </mxCell>
        <mxCell id="hC0q6JcySRWqP5jWDdLD-61" value="T" style="text;html=1;align=center;verticalAlign=middle;whiteSpace=wrap;rounded=0;" vertex="1" parent="1">
          <mxGeometry x="290" y="-590" width="20" height="30" as="geometry" />
        </mxCell>
        <mxCell id="hC0q6JcySRWqP5jWDdLD-62" value="T" style="text;html=1;align=center;verticalAlign=middle;whiteSpace=wrap;rounded=0;" vertex="1" parent="1">
          <mxGeometry x="187.5" y="-970" width="20" height="30" as="geometry" />
        </mxCell>
        <mxCell id="hC0q6JcySRWqP5jWDdLD-63" value="F" style="text;html=1;align=center;verticalAlign=middle;whiteSpace=wrap;rounded=0;" vertex="1" parent="1">
          <mxGeometry x="62.5" y="-970" width="20" height="30" as="geometry" />
        </mxCell>
        <mxCell id="hC0q6JcySRWqP5jWDdLD-64" value="F" style="text;html=1;align=center;verticalAlign=middle;whiteSpace=wrap;rounded=0;" vertex="1" parent="1">
          <mxGeometry x="450" y="-670" width="20" height="30" as="geometry" />
        </mxCell>
        <mxCell id="hC0q6JcySRWqP5jWDdLD-65" value="F" style="text;html=1;align=center;verticalAlign=middle;whiteSpace=wrap;rounded=0;" vertex="1" parent="1">
          <mxGeometry x="580" y="-640" width="20" height="30" as="geometry" />
        </mxCell>
        <mxCell id="hC0q6JcySRWqP5jWDdLD-66" value="F" style="text;html=1;align=center;verticalAlign=middle;whiteSpace=wrap;rounded=0;" vertex="1" parent="1">
          <mxGeometry x="465" y="-577.5" width="20" height="30" as="geometry" />
        </mxCell>
        <mxCell id="hC0q6JcySRWqP5jWDdLD-67" value="T" style="text;html=1;align=center;verticalAlign=middle;whiteSpace=wrap;rounded=0;" vertex="1" parent="1">
          <mxGeometry x="618.75" y="-577.5" width="20" height="30" as="geometry" />
        </mxCell>
        <mxCell id="hC0q6JcySRWqP5jWDdLD-68" value="F" style="text;html=1;align=center;verticalAlign=middle;whiteSpace=wrap;rounded=0;" vertex="1" parent="1">
          <mxGeometry x="207.5" y="-590" width="20" height="30" as="geometry" />
        </mxCell>
      </root>
    </mxGraphModel>
  </diagram>
</mxfile>
